<svg width="348" height="280" viewBox="0 0 348 280" fill="none" xmlns="http://www.w3.org/2000/svg">
<g clip-path="url(#clip0_2129_208301)">
<path d="M187.122 81.6622V83.0121H182.777V81.6622H187.122ZM183.285 78.2412V86.6407H181.57V78.2412H183.285ZM188.345 78.2412V86.6407H186.636V78.2412H188.345Z" fill="#383838"/>
<path d="M173.175 158.166L174.833 151.099H175.759L175.97 152.275L174.204 159.498H173.209L173.175 158.166ZM172.323 151.099L173.695 158.166L173.581 159.498H172.472L170.625 151.099H172.323ZM177.428 158.137L178.783 151.099H180.481L178.64 159.498H177.531L177.428 158.137ZM176.279 151.099L177.948 158.194L177.903 159.498H176.908L175.13 152.27L175.359 151.099H176.279Z" fill="#383838"/>
<path d="M174 24L174 143.5" stroke="#383838" stroke-width="2" stroke-linecap="square" stroke-dasharray="4 4"/>
<path d="M308.072 143.73V279H39.9219V143.73H308.072Z" stroke="#383838" stroke-width="2"/>
<path d="M38.9219 143.42H309.072" stroke="#383838" stroke-width="2"/>
<path d="M39.2161 176.962H1.45312M1.45312 176.962V155.494L173.71 2.03027L347.129 155.494V176.962M1.45312 176.962L173.71 22.3374L347.129 176.962M347.129 176.962H308.204" stroke="#383838" stroke-width="2"/>
</g>
<defs>
<clipPath id="clip0_2129_208301">
<rect width="348" height="280" fill="white"/>
</clipPath>
</defs>
</svg>
