<svg width="21" height="40" viewBox="0 0 21 40" fill="none" xmlns="http://www.w3.org/2000/svg">
<g clip-path="url(#clip0_1918_110439)">
<path d="M19.0592 8.07653L16.2627 5.73807C16.0195 5.55346 15.7156 5.55346 15.4724 5.73807L12.6759 8.07653C12.5543 8.19961 12.4327 8.38422 12.4327 8.56884V14.6611H10.3049V8.56884C10.3049 8.38422 10.2441 8.19961 10.0617 8.07653L7.2652 5.73807C7.02202 5.55346 6.71805 5.55346 6.47487 5.73807L3.67835 8.07653C3.55676 8.19961 3.43517 8.38422 3.43517 8.56884V14.6611H1.30738V8.56884C1.30738 8.38422 1.24659 8.19961 1.0642 8.07653L-1.73232 5.73807C-1.9755 5.55346 -2.27947 5.55346 -2.52264 5.73807L-5.19758 8.07653C-5.31917 8.19961 -5.37996 8.38422 -5.37996 8.56884V14.6611H-7.50776V8.56884C-7.50776 8.38422 -7.56855 8.19961 -7.75093 8.07653L-10.5475 5.73807C-10.7906 5.55346 -11.0946 5.55346 -11.3378 5.73807L-14.1343 8.07653C-14.2559 8.19961 -14.3775 8.38422 -14.3775 8.56884V14.6611H-16.5053V8.56884C-16.5053 8.38422 -16.5661 8.19961 -16.7484 8.07653L-19.545 5.73807C-19.7882 5.55346 -20.0921 5.55346 -20.3353 5.73807L-23.1318 8.07653C-23.2534 8.19961 -23.375 8.38422 -23.375 8.56884V48.6304C-23.375 48.9996 -23.1318 49.2458 -22.7671 49.2458H-17.174C-16.8092 49.2458 -16.5661 48.9996 -16.5661 48.6304V42.4765H-14.3167V48.6304C-14.3167 48.9996 -14.0735 49.2458 -13.7087 49.2458H-8.1157C-7.75093 49.2458 -7.50776 48.9996 -7.50776 48.6304V42.4765H-5.37996V48.6304C-5.37996 48.9996 -5.13679 49.2458 -4.77202 49.2458H0.821028C1.18579 49.2458 1.42897 48.9996 1.42897 48.6304V42.4765H3.55676V48.6304C3.55676 48.9996 3.79994 49.2458 4.1647 49.2458H9.75775C10.1225 49.2458 10.3657 48.9996 10.3657 48.6304V42.4765H12.4935V48.6304C12.4935 48.9996 12.7367 49.2458 13.1014 49.2458H18.6945C19.0592 49.2458 19.3024 48.9996 19.3024 48.6304V8.56884C19.3024 8.38422 19.2416 8.19961 19.0592 8.07653ZM-17.6604 48.015H-22.0375V8.87653L-19.8489 7.03038L-17.6604 8.87653V48.015ZM-14.3167 41.2458H-16.4445V15.8919H-14.3167V41.2458ZM-8.72364 48.015H-13.1008V8.87653L-10.9122 7.03038L-8.72364 8.87653V48.015ZM-5.37996 41.2458H-7.50776V15.8919H-5.37996V41.2458ZM0.213087 48.0765H-4.16408V8.87653L-1.9755 7.03038L0.213087 8.87653V48.0765ZM3.55676 41.2458H1.42897V15.8919H3.55676V41.2458ZM9.14981 48.0765H4.77264V8.87653L6.96123 7.03038L9.14981 8.87653V48.0765ZM12.4935 41.2458H10.3657V15.8919H12.4935V41.2458ZM18.0865 48.0765H13.7094V8.87653L15.898 7.03038L18.0865 8.87653V48.0765Z" fill="#F2F4F9"/>
</g>
<defs>
<clipPath id="clip0_1918_110439">
<rect width="26" height="40" fill="white" transform="translate(-5)"/>
</clipPath>
</defs>
</svg>
