<svg width="21" height="40" viewBox="0 0 21 40" fill="none" xmlns="http://www.w3.org/2000/svg">
<g clip-path="url(#clip0_1918_110167)">
<path d="M19.0631 8.07653L16.2666 5.73807C16.0234 5.55346 15.7195 5.55346 15.4763 5.73807L12.6798 8.07653C12.5582 8.19961 12.4366 8.38422 12.4366 8.56884V14.6611H10.3088V8.56884C10.3088 8.38422 10.248 8.19961 10.0656 8.07653L7.2691 5.73807C7.02593 5.55346 6.72196 5.55346 6.47878 5.73807L3.68225 8.07653C3.56067 8.19961 3.43908 8.38422 3.43908 8.56884V14.6611H1.31129V8.56884C1.31129 8.38422 1.25049 8.19961 1.06811 8.07653L-1.72841 5.73807C-1.97159 5.55346 -2.27556 5.55346 -2.51874 5.73807L-5.19368 8.07653C-5.31526 8.19961 -5.37606 8.38422 -5.37606 8.56884V14.6611H-7.50385V8.56884C-7.50385 8.38422 -7.56464 8.19961 -7.74703 8.07653L-10.5436 5.73807C-10.7867 5.55346 -11.0907 5.55346 -11.3339 5.73807L-14.1304 8.07653C-14.252 8.19961 -14.3736 8.38422 -14.3736 8.56884V14.6611H-16.5014V8.56884C-16.5014 8.38422 -16.5622 8.19961 -16.7445 8.07653L-19.5411 5.73807C-19.7842 5.55346 -20.0882 5.55346 -20.3314 5.73807L-23.1279 8.07653C-23.2495 8.19961 -23.3711 8.38422 -23.3711 8.56884V48.6304C-23.3711 48.9996 -23.1279 49.2458 -22.7632 49.2458H-17.1701C-16.8053 49.2458 -16.5622 48.9996 -16.5622 48.6304V42.4765H-14.3128V48.6304C-14.3128 48.9996 -14.0696 49.2458 -13.7048 49.2458H-8.11179C-7.74703 49.2458 -7.50385 48.9996 -7.50385 48.6304V42.4765H-5.37606V48.6304C-5.37606 48.9996 -5.13288 49.2458 -4.76812 49.2458H0.824934C1.1897 49.2458 1.43287 48.9996 1.43287 48.6304V42.4765H3.56067V48.6304C3.56067 48.9996 3.80384 49.2458 4.16861 49.2458H9.76166C10.1264 49.2458 10.3696 48.9996 10.3696 48.6304V42.4765H12.4974V48.6304C12.4974 48.9996 12.7406 49.2458 13.1053 49.2458H18.6984C19.0631 49.2458 19.3063 48.9996 19.3063 48.6304V8.56884C19.3063 8.38422 19.2455 8.19961 19.0631 8.07653ZM-17.6565 48.015H-22.0336V8.87653L-19.845 7.03038L-17.6565 8.87653V48.015ZM-14.3128 41.2458H-16.4406V15.8919H-14.3128V41.2458ZM-8.71973 48.015H-13.0969V8.87653L-10.9083 7.03038L-8.71973 8.87653V48.015ZM-5.37606 41.2458H-7.50385V15.8919H-5.37606V41.2458ZM0.216993 48.0765H-4.16018V8.87653L-1.97159 7.03038L0.216993 8.87653V48.0765ZM3.56067 41.2458H1.43287V15.8919H3.56067V41.2458ZM9.15372 48.0765H4.77655V8.87653L6.96513 7.03038L9.15372 8.87653V48.0765ZM12.4974 41.2458H10.3696V15.8919H12.4974V41.2458ZM18.0904 48.0765H13.7133V8.87653L15.9019 7.03038L18.0904 8.87653V48.0765Z" fill="#233589"/>
</g>
<defs>
<clipPath id="clip0_1918_110167">
<rect width="26" height="40" fill="white" transform="translate(-5)"/>
</clipPath>
</defs>
</svg>
