<svg width="250" height="40" viewBox="0 0 250 40" fill="none" xmlns="http://www.w3.org/2000/svg">
<g clip-path="url(#clip0_3006_33499)">
<path d="M163.999 38.1818H0V39.9999H163.999V38.1818Z" fill="#233589"/>
<path d="M43.582 5.11014H57.6977V32.4307H63.5987V5.11014H79.1933V0.0507812H43.582V5.11014Z" fill="#233589"/>
<path d="M85.0742 5.11014H99.6145V27.3641H85.0742V32.4307H119.653V27.3641H105.516V5.11014H119.646V0.0507812H85.0742V5.11014Z" fill="#233589"/>
<path d="M135.463 27.3641L163.123 4.52167L163.365 4.32791V0.0507812H125.586V5.11014H153.305L125.477 27.9526V32.4307H164.002V27.3641H135.463Z" fill="#233589"/>
<path d="M0 32.4301L37.7638 32.4229V27.3636H5.8864V18.0056H29.4247V12.9677H5.8864V5.15265H37.7638V0H0V32.4301Z" fill="#233589"/>
</g>
<path d="M176.315 2.67969V10.5H174.704V2.67969H176.315ZM180.923 2.67969L177.926 7.27197H175.955L175.751 5.83789H177.067L178.968 2.67969H180.923ZM179.264 10.5L177.072 7.00342L178.189 5.854L181.176 10.5H179.264ZM188.062 6.40723V6.77783C188.062 7.37223 187.981 7.90576 187.82 8.37842C187.659 8.85107 187.431 9.25391 187.138 9.58691C186.844 9.91634 186.493 10.1688 186.085 10.3442C185.68 10.5197 185.231 10.6074 184.737 10.6074C184.246 10.6074 183.797 10.5197 183.389 10.3442C182.984 10.1688 182.633 9.91634 182.336 9.58691C182.039 9.25391 181.808 8.85107 181.643 8.37842C181.482 7.90576 181.401 7.37223 181.401 6.77783V6.40723C181.401 5.80924 181.482 5.27572 181.643 4.80664C181.804 4.33398 182.032 3.93115 182.325 3.59814C182.622 3.26514 182.973 3.0109 183.378 2.83545C183.786 2.65999 184.236 2.57227 184.726 2.57227C185.22 2.57227 185.67 2.65999 186.074 2.83545C186.482 3.0109 186.833 3.26514 187.127 3.59814C187.424 3.93115 187.653 4.33398 187.814 4.80664C187.979 5.27572 188.062 5.80924 188.062 6.40723ZM186.434 6.77783V6.39648C186.434 5.98112 186.396 5.61589 186.321 5.30078C186.246 4.98568 186.135 4.7207 185.988 4.50586C185.841 4.29102 185.662 4.12988 185.451 4.02246C185.24 3.91146 184.998 3.85596 184.726 3.85596C184.454 3.85596 184.212 3.91146 184.001 4.02246C183.793 4.12988 183.616 4.29102 183.469 4.50586C183.326 4.7207 183.217 4.98568 183.142 5.30078C183.066 5.61589 183.029 5.98112 183.029 6.39648V6.77783C183.029 7.18962 183.066 7.55485 183.142 7.87354C183.217 8.18864 183.328 8.4554 183.475 8.67383C183.621 8.88867 183.8 9.0516 184.012 9.1626C184.223 9.2736 184.465 9.3291 184.737 9.3291C185.009 9.3291 185.251 9.2736 185.462 9.1626C185.673 9.0516 185.85 8.88867 185.994 8.67383C186.137 8.4554 186.246 8.18864 186.321 7.87354C186.396 7.55485 186.434 7.18962 186.434 6.77783ZM189.958 2.67969H191.322L193.331 8.42139L195.339 2.67969H196.704L193.878 10.5H192.783L189.958 2.67969ZM189.222 2.67969H190.581L190.828 8.27637V10.5H189.222V2.67969ZM196.081 2.67969H197.445V10.5H195.833V8.27637L196.081 2.67969ZM205.228 2.67969V10.5H203.616V3.94189H200.474V10.5H198.863V2.67969H205.228ZM213.059 6.40723V6.77783C213.059 7.37223 212.978 7.90576 212.817 8.37842C212.656 8.85107 212.428 9.25391 212.135 9.58691C211.841 9.91634 211.49 10.1688 211.082 10.3442C210.677 10.5197 210.228 10.6074 209.734 10.6074C209.243 10.6074 208.794 10.5197 208.386 10.3442C207.981 10.1688 207.63 9.91634 207.333 9.58691C207.036 9.25391 206.805 8.85107 206.64 8.37842C206.479 7.90576 206.398 7.37223 206.398 6.77783V6.40723C206.398 5.80924 206.479 5.27572 206.64 4.80664C206.801 4.33398 207.029 3.93115 207.322 3.59814C207.619 3.26514 207.97 3.0109 208.375 2.83545C208.783 2.65999 209.233 2.57227 209.723 2.57227C210.217 2.57227 210.667 2.65999 211.071 2.83545C211.479 3.0109 211.83 3.26514 212.124 3.59814C212.421 3.93115 212.65 4.33398 212.812 4.80664C212.976 5.27572 213.059 5.80924 213.059 6.40723ZM211.431 6.77783V6.39648C211.431 5.98112 211.394 5.61589 211.318 5.30078C211.243 4.98568 211.132 4.7207 210.985 4.50586C210.839 4.29102 210.66 4.12988 210.448 4.02246C210.237 3.91146 209.995 3.85596 209.723 3.85596C209.451 3.85596 209.209 3.91146 208.998 4.02246C208.79 4.12988 208.613 4.29102 208.466 4.50586C208.323 4.7207 208.214 4.98568 208.139 5.30078C208.063 5.61589 208.026 5.98112 208.026 6.39648V6.77783C208.026 7.18962 208.063 7.55485 208.139 7.87354C208.214 8.18864 208.325 8.4554 208.472 8.67383C208.618 8.88867 208.798 9.0516 209.009 9.1626C209.22 9.2736 209.462 9.3291 209.734 9.3291C210.006 9.3291 210.248 9.2736 210.459 9.1626C210.67 9.0516 210.847 8.88867 210.991 8.67383C211.134 8.4554 211.243 8.18864 211.318 7.87354C211.394 7.55485 211.431 7.18962 211.431 6.77783ZM217.141 6.75098H215.927V5.89697H216.894C217.176 5.89697 217.406 5.854 217.581 5.76807C217.757 5.67855 217.885 5.55322 217.968 5.39209C218.05 5.23096 218.091 5.04118 218.091 4.82275C218.091 4.64372 218.045 4.479 217.952 4.32861C217.862 4.17822 217.722 4.05827 217.533 3.96875C217.343 3.87565 217.101 3.8291 216.808 3.8291C216.586 3.8291 216.383 3.86849 216.201 3.94727C216.018 4.02604 215.873 4.13704 215.766 4.28027C215.658 4.41992 215.604 4.59001 215.604 4.79053H213.999C213.999 4.44678 214.072 4.13883 214.219 3.8667C214.369 3.59098 214.573 3.35824 214.831 3.16846C215.092 2.9751 215.393 2.82829 215.733 2.72803C216.074 2.62777 216.432 2.57764 216.808 2.57764C217.248 2.57764 217.646 2.62598 218 2.72266C218.354 2.81576 218.659 2.9554 218.913 3.1416C219.167 3.3278 219.362 3.55876 219.499 3.83447C219.635 4.11019 219.703 4.43066 219.703 4.7959C219.703 5.06445 219.642 5.31689 219.52 5.55322C219.398 5.78955 219.225 5.99723 218.999 6.17627C218.773 6.35531 218.503 6.49674 218.188 6.60059C217.873 6.70085 217.524 6.75098 217.141 6.75098ZM215.927 6.28369H217.141C217.567 6.28369 217.944 6.32845 218.274 6.41797C218.607 6.50749 218.888 6.63818 219.117 6.81006C219.35 6.98193 219.525 7.19499 219.644 7.44922C219.765 7.69987 219.826 7.98812 219.826 8.31396C219.826 8.6792 219.751 9.00326 219.601 9.28613C219.454 9.56901 219.244 9.80892 218.972 10.0059C218.704 10.2028 218.385 10.3514 218.016 10.4517C217.651 10.5519 217.248 10.6021 216.808 10.6021C216.457 10.6021 216.108 10.5591 215.76 10.4731C215.413 10.3836 215.098 10.2476 214.815 10.0649C214.532 9.88232 214.306 9.64779 214.138 9.36133C213.97 9.07487 213.886 8.73112 213.886 8.33008H215.502C215.502 8.51986 215.558 8.69352 215.669 8.85107C215.78 9.00505 215.934 9.12858 216.131 9.22168C216.328 9.3112 216.553 9.35596 216.808 9.35596C217.105 9.35596 217.357 9.30941 217.565 9.21631C217.776 9.12321 217.936 8.99609 218.043 8.83496C218.154 8.67025 218.209 8.48942 218.209 8.29248C218.209 8.08122 218.181 7.90218 218.124 7.75537C218.066 7.60856 217.982 7.48861 217.871 7.39551C217.76 7.29883 217.622 7.229 217.458 7.18604C217.296 7.14307 217.108 7.12158 216.894 7.12158H215.927V6.28369ZM222.571 7.96484L225.713 2.67969H227.324V10.5H225.713V5.21484L222.571 10.5H220.959V2.67969H222.571V7.96484ZM232.056 2.67969V10.5H230.45V2.67969H232.056ZM234.462 2.67969V3.94189H228.082V2.67969H234.462ZM236.444 5.53174H238.271C238.883 5.53174 239.411 5.63379 239.855 5.83789C240.303 6.04199 240.645 6.32845 240.881 6.69727C241.121 7.06608 241.241 7.49577 241.241 7.98633C241.241 8.35872 241.173 8.69889 241.037 9.00684C240.901 9.3112 240.704 9.57617 240.446 9.80176C240.188 10.0238 239.876 10.1956 239.511 10.3174C239.146 10.4391 238.732 10.5 238.271 10.5H235.392V2.67969H237.008V9.24316H238.271C238.575 9.24316 238.827 9.18587 239.028 9.07129C239.232 8.95671 239.384 8.80452 239.484 8.61475C239.585 8.42139 239.635 8.20833 239.635 7.97559C239.635 7.75358 239.585 7.55306 239.484 7.37402C239.384 7.19141 239.232 7.04818 239.028 6.94434C238.827 6.84049 238.575 6.78857 238.271 6.78857H236.444V5.53174ZM243.54 2.67969V10.5H241.934V2.67969H243.54ZM179.914 18.8647V20.1216H175.832V18.8647H179.914ZM176.31 15.6797V23.5H174.698V15.6797H176.31ZM181.063 15.6797V23.5H179.457V15.6797H181.063ZM188.889 19.4072V19.7778C188.889 20.3722 188.808 20.9058 188.647 21.3784C188.486 21.8511 188.258 22.2539 187.965 22.5869C187.671 22.9163 187.32 23.1688 186.912 23.3442C186.507 23.5197 186.058 23.6074 185.564 23.6074C185.073 23.6074 184.624 23.5197 184.216 23.3442C183.811 23.1688 183.46 22.9163 183.163 22.5869C182.866 22.2539 182.635 21.8511 182.47 21.3784C182.309 20.9058 182.229 20.3722 182.229 19.7778V19.4072C182.229 18.8092 182.309 18.2757 182.47 17.8066C182.631 17.334 182.859 16.9312 183.152 16.5981C183.45 16.2651 183.8 16.0109 184.205 15.8354C184.613 15.66 185.063 15.5723 185.553 15.5723C186.047 15.5723 186.497 15.66 186.901 15.8354C187.31 16.0109 187.66 16.2651 187.954 16.5981C188.251 16.9312 188.48 17.334 188.642 17.8066C188.806 18.2757 188.889 18.8092 188.889 19.4072ZM187.261 19.7778V19.3965C187.261 18.9811 187.224 18.6159 187.148 18.3008C187.073 17.9857 186.962 17.7207 186.815 17.5059C186.669 17.291 186.49 17.1299 186.278 17.0225C186.067 16.9115 185.825 16.856 185.553 16.856C185.281 16.856 185.039 16.9115 184.828 17.0225C184.62 17.1299 184.443 17.291 184.296 17.5059C184.153 17.7207 184.044 17.9857 183.969 18.3008C183.894 18.6159 183.856 18.9811 183.856 19.3965V19.7778C183.856 20.1896 183.894 20.5549 183.969 20.8735C184.044 21.1886 184.155 21.4554 184.302 21.6738C184.449 21.8887 184.628 22.0516 184.839 22.1626C185.05 22.2736 185.292 22.3291 185.564 22.3291C185.836 22.3291 186.078 22.2736 186.289 22.1626C186.5 22.0516 186.678 21.8887 186.821 21.6738C186.964 21.4554 187.073 21.1886 187.148 20.8735C187.224 20.5549 187.261 20.1896 187.261 19.7778ZM193.11 20.0679H191.102L191.091 18.9614H192.777C193.075 18.9614 193.318 18.9238 193.508 18.8486C193.698 18.7699 193.839 18.6571 193.932 18.5103C194.029 18.3599 194.077 18.1772 194.077 17.9624C194.077 17.7189 194.031 17.522 193.938 17.3716C193.848 17.2212 193.707 17.112 193.513 17.0439C193.323 16.9759 193.078 16.9419 192.777 16.9419H191.66V23.5H190.049V15.6797H192.777C193.232 15.6797 193.639 15.7227 193.997 15.8086C194.358 15.8945 194.664 16.0252 194.915 16.2007C195.166 16.3761 195.357 16.5981 195.49 16.8667C195.622 17.1317 195.688 17.4468 195.688 17.812C195.688 18.1343 195.615 18.4315 195.468 18.7036C195.325 18.9757 195.098 19.1978 194.786 19.3696C194.478 19.5415 194.075 19.6364 193.578 19.6543L193.11 20.0679ZM193.041 23.5H190.661L191.29 22.2432H193.041C193.323 22.2432 193.554 22.1984 193.733 22.1089C193.912 22.0158 194.045 21.8905 194.131 21.7329C194.217 21.5754 194.26 21.3945 194.26 21.1904C194.26 20.9613 194.22 20.7625 194.142 20.5942C194.066 20.4259 193.945 20.297 193.776 20.2075C193.608 20.1144 193.386 20.0679 193.11 20.0679H191.558L191.569 18.9614H193.502L193.873 19.3965C194.349 19.3893 194.732 19.4735 195.022 19.6489C195.316 19.8208 195.529 20.0446 195.662 20.3203C195.798 20.596 195.866 20.8914 195.866 21.2065C195.866 21.7078 195.757 22.1304 195.538 22.4741C195.32 22.8143 194.999 23.0703 194.577 23.2422C194.158 23.4141 193.646 23.5 193.041 23.5ZM203.498 19.4072V19.7778C203.498 20.3722 203.417 20.9058 203.256 21.3784C203.095 21.8511 202.868 22.2539 202.574 22.5869C202.281 22.9163 201.93 23.1688 201.521 23.3442C201.117 23.5197 200.667 23.6074 200.173 23.6074C199.683 23.6074 199.233 23.5197 198.825 23.3442C198.421 23.1688 198.07 22.9163 197.772 22.5869C197.475 22.2539 197.244 21.8511 197.08 21.3784C196.918 20.9058 196.838 20.3722 196.838 19.7778V19.4072C196.838 18.8092 196.918 18.2757 197.08 17.8066C197.241 17.334 197.468 16.9312 197.762 16.5981C198.059 16.2651 198.41 16.0109 198.814 15.8354C199.223 15.66 199.672 15.5723 200.163 15.5723C200.657 15.5723 201.106 15.66 201.511 15.8354C201.919 16.0109 202.27 16.2651 202.563 16.5981C202.861 16.9312 203.09 17.334 203.251 17.8066C203.416 18.2757 203.498 18.8092 203.498 19.4072ZM201.871 19.7778V19.3965C201.871 18.9811 201.833 18.6159 201.758 18.3008C201.683 17.9857 201.572 17.7207 201.425 17.5059C201.278 17.291 201.099 17.1299 200.888 17.0225C200.676 16.9115 200.435 16.856 200.163 16.856C199.89 16.856 199.649 16.9115 199.438 17.0225C199.23 17.1299 199.053 17.291 198.906 17.5059C198.763 17.7207 198.653 17.9857 198.578 18.3008C198.503 18.6159 198.465 18.9811 198.465 19.3965V19.7778C198.465 20.1896 198.503 20.5549 198.578 20.8735C198.653 21.1886 198.764 21.4554 198.911 21.6738C199.058 21.8887 199.237 22.0516 199.448 22.1626C199.66 22.2736 199.901 22.3291 200.173 22.3291C200.445 22.3291 200.687 22.2736 200.898 22.1626C201.11 22.0516 201.287 21.8887 201.43 21.6738C201.573 21.4554 201.683 21.1886 201.758 20.8735C201.833 20.5549 201.871 20.1896 201.871 19.7778ZM209.793 15.6797V16.9419H206.27V23.5H204.664V15.6797H209.793ZM216.851 19.4072V19.7778C216.851 20.3722 216.77 20.9058 216.609 21.3784C216.448 21.8511 216.22 22.2539 215.927 22.5869C215.633 22.9163 215.282 23.1688 214.874 23.3442C214.469 23.5197 214.02 23.6074 213.526 23.6074C213.035 23.6074 212.586 23.5197 212.178 23.3442C211.773 23.1688 211.422 22.9163 211.125 22.5869C210.828 22.2539 210.597 21.8511 210.432 21.3784C210.271 20.9058 210.19 20.3722 210.19 19.7778V19.4072C210.19 18.8092 210.271 18.2757 210.432 17.8066C210.593 17.334 210.821 16.9312 211.114 16.5981C211.411 16.2651 211.762 16.0109 212.167 15.8354C212.575 15.66 213.025 15.5723 213.515 15.5723C214.009 15.5723 214.459 15.66 214.863 15.8354C215.271 16.0109 215.622 16.2651 215.916 16.5981C216.213 16.9312 216.442 17.334 216.604 17.8066C216.768 18.2757 216.851 18.8092 216.851 19.4072ZM215.223 19.7778V19.3965C215.223 18.9811 215.186 18.6159 215.11 18.3008C215.035 17.9857 214.924 17.7207 214.777 17.5059C214.631 17.291 214.451 17.1299 214.24 17.0225C214.029 16.9115 213.787 16.856 213.515 16.856C213.243 16.856 213.001 16.9115 212.79 17.0225C212.582 17.1299 212.405 17.291 212.258 17.5059C212.115 17.7207 212.006 17.9857 211.931 18.3008C211.855 18.6159 211.818 18.9811 211.818 19.3965V19.7778C211.818 20.1896 211.855 20.5549 211.931 20.8735C212.006 21.1886 212.117 21.4554 212.264 21.6738C212.41 21.8887 212.59 22.0516 212.801 22.1626C213.012 22.2736 213.254 22.3291 213.526 22.3291C213.798 22.3291 214.04 22.2736 214.251 22.1626C214.462 22.0516 214.639 21.8887 214.783 21.6738C214.926 21.4554 215.035 21.1886 215.11 20.8735C215.186 20.5549 215.223 20.1896 215.223 19.7778ZM181.068 28.6797V36.5H179.457V29.9419H176.315V36.5H174.704V28.6797H181.068ZM188.899 32.4072V32.7778C188.899 33.3722 188.819 33.9058 188.658 34.3784C188.497 34.8511 188.269 35.2539 187.976 35.5869C187.682 35.9163 187.331 36.1688 186.923 36.3442C186.518 36.5197 186.069 36.6074 185.575 36.6074C185.084 36.6074 184.635 36.5197 184.227 36.3442C183.822 36.1688 183.471 35.9163 183.174 35.5869C182.877 35.2539 182.646 34.8511 182.481 34.3784C182.32 33.9058 182.239 33.3722 182.239 32.7778V32.4072C182.239 31.8092 182.32 31.2757 182.481 30.8066C182.642 30.334 182.869 29.9312 183.163 29.5981C183.46 29.2651 183.811 29.0109 184.216 28.8354C184.624 28.66 185.073 28.5723 185.564 28.5723C186.058 28.5723 186.507 28.66 186.912 28.8354C187.32 29.0109 187.671 29.2651 187.965 29.5981C188.262 29.9312 188.491 30.334 188.652 30.8066C188.817 31.2757 188.899 31.8092 188.899 32.4072ZM187.272 32.7778V32.3965C187.272 31.9811 187.234 31.6159 187.159 31.3008C187.084 30.9857 186.973 30.7207 186.826 30.5059C186.679 30.291 186.5 30.1299 186.289 30.0225C186.078 29.9115 185.836 29.856 185.564 29.856C185.292 29.856 185.05 29.9115 184.839 30.0225C184.631 30.1299 184.454 30.291 184.307 30.5059C184.164 30.7207 184.055 30.9857 183.979 31.3008C183.904 31.6159 183.867 31.9811 183.867 32.3965V32.7778C183.867 33.1896 183.904 33.5549 183.979 33.8735C184.055 34.1886 184.166 34.4554 184.312 34.6738C184.459 34.8887 184.638 35.0516 184.85 35.1626C185.061 35.2736 185.303 35.3291 185.575 35.3291C185.847 35.3291 186.089 35.2736 186.3 35.1626C186.511 35.0516 186.688 34.8887 186.832 34.6738C186.975 34.4554 187.084 34.1886 187.159 33.8735C187.234 33.5549 187.272 33.1896 187.272 32.7778ZM191.676 28.6797V36.5H190.065V28.6797H191.676ZM196.285 28.6797L193.288 33.272H191.316L191.112 31.8379H192.428L194.33 28.6797H196.285ZM194.625 36.5L192.434 33.0034L193.551 31.854L196.537 36.5H194.625ZM203.423 32.4072V32.7778C203.423 33.3722 203.342 33.9058 203.181 34.3784C203.02 34.8511 202.793 35.2539 202.499 35.5869C202.205 35.9163 201.854 36.1688 201.446 36.3442C201.042 36.5197 200.592 36.6074 200.098 36.6074C199.608 36.6074 199.158 36.5197 198.75 36.3442C198.345 36.1688 197.994 35.9163 197.697 35.5869C197.4 35.2539 197.169 34.8511 197.004 34.3784C196.843 33.9058 196.763 33.3722 196.763 32.7778V32.4072C196.763 31.8092 196.843 31.2757 197.004 30.8066C197.166 30.334 197.393 29.9312 197.687 29.5981C197.984 29.2651 198.335 29.0109 198.739 28.8354C199.147 28.66 199.597 28.5723 200.087 28.5723C200.582 28.5723 201.031 28.66 201.436 28.8354C201.844 29.0109 202.195 29.2651 202.488 29.5981C202.785 29.9312 203.015 30.334 203.176 30.8066C203.34 31.2757 203.423 31.8092 203.423 32.4072ZM201.795 32.7778V32.3965C201.795 31.9811 201.758 31.6159 201.683 31.3008C201.607 30.9857 201.496 30.7207 201.35 30.5059C201.203 30.291 201.024 30.1299 200.812 30.0225C200.601 29.9115 200.36 29.856 200.087 29.856C199.815 29.856 199.574 29.9115 199.362 30.0225C199.155 30.1299 198.977 30.291 198.831 30.5059C198.687 30.7207 198.578 30.9857 198.503 31.3008C198.428 31.6159 198.39 31.9811 198.39 32.3965V32.7778C198.39 33.1896 198.428 33.5549 198.503 33.8735C198.578 34.1886 198.689 34.4554 198.836 34.6738C198.983 34.8887 199.162 35.0516 199.373 35.1626C199.584 35.2736 199.826 35.3291 200.098 35.3291C200.37 35.3291 200.612 35.2736 200.823 35.1626C201.035 35.0516 201.212 34.8887 201.355 34.6738C201.498 34.4554 201.607 34.1886 201.683 33.8735C201.758 33.5549 201.795 33.1896 201.795 32.7778ZM209.626 28.6797V29.9419H205.738V28.6797H209.626ZM210.776 28.6797V36.5H209.165V28.6797H210.776ZM205.534 28.6797H207.14L206.941 32.606C206.912 33.1932 206.857 33.7035 206.774 34.1367C206.696 34.57 206.588 34.9388 206.452 35.2432C206.316 35.5439 206.148 35.7874 205.947 35.9736C205.75 36.1562 205.518 36.2905 205.249 36.3765C204.98 36.4588 204.674 36.5 204.331 36.5H203.933V35.2432L204.137 35.2271C204.313 35.2091 204.467 35.1626 204.599 35.0874C204.732 35.0122 204.844 34.8994 204.938 34.749C205.034 34.5986 205.113 34.4071 205.174 34.1743C205.238 33.938 205.288 33.6497 205.324 33.3096C205.364 32.9694 205.39 32.5719 205.405 32.1172L205.534 28.6797ZM217.425 35.2432V36.5H213.263V35.2432H217.425ZM213.789 28.6797V36.5H212.178V28.6797H213.789ZM216.883 31.8647V33.0894H213.263V31.8647H216.883ZM217.42 28.6797V29.9419H213.263V28.6797H217.42ZM223.581 31.8647V33.1216H219.499V31.8647H223.581ZM219.977 28.6797V36.5H218.365V28.6797H219.977ZM224.73 28.6797V36.5H223.124V28.6797H224.73ZM227.684 33.9648L230.826 28.6797H232.438V36.5H230.826V31.2148L227.684 36.5H226.073V28.6797H227.684V33.9648ZM237.991 33.6587H235.864L235.322 33.4331C234.709 33.2397 234.24 32.9497 233.915 32.563C233.592 32.1763 233.431 31.6839 233.431 31.0859C233.431 30.5596 233.548 30.1191 233.78 29.7646C234.017 29.4066 234.35 29.1362 234.779 28.9536C235.213 28.771 235.726 28.6797 236.321 28.6797H239.049V36.5H237.433V29.9419H236.321C235.88 29.9419 235.556 30.0511 235.349 30.2695C235.141 30.488 235.037 30.7977 235.037 31.1987C235.037 31.4924 235.085 31.734 235.182 31.9238C235.279 32.11 235.42 32.2497 235.606 32.3428C235.793 32.4323 236.027 32.4771 236.31 32.4771H237.986L237.991 33.6587ZM236.439 33.0088L234.704 36.5H232.958L234.699 33.0088H236.439Z" fill="#233589"/>
<defs>
<clipPath id="clip0_3006_33499">
<rect width="164" height="40" fill="white"/>
</clipPath>
</defs>
</svg>
