<svg width="120" height="30" viewBox="0 0 120 30" fill="none" xmlns="http://www.w3.org/2000/svg">
<g clip-path="url(#clip0_3005_57487)">
<path d="M31.8905 3.86931H42.219V21.4677H46.5369V3.86931H57.9475V0.610352H31.8905V3.86931Z" fill="#233589"/>
<path d="M62.2498 3.86931H72.889V18.2041H62.2498V21.4677H87.5514V18.2041H77.2068V3.86931H87.5461V0.610352H62.2498V3.86931Z" fill="#233589"/>
<path d="M99.118 18.2041L119.357 3.49025L119.534 3.36544V0.610352H91.8912V3.86931H112.173L91.8109 18.5831V21.4677H120V18.2041H99.118Z" fill="#233589"/>
<path d="M0 21.4677L27.632 21.4631V18.2041H4.30713V12.1762H21.5303V8.9311H4.30713V3.89705H27.632V0.578003H0V21.4677Z" fill="#233589"/>
</g>
<path d="M1.05442 25.2002V29.935H0V25.2002H1.05442ZM4.07006 25.2002L2.10884 27.9806H0.818933L0.685373 27.1123H1.54648L2.7907 25.2002H4.07006ZM2.98401 29.935L1.55 27.818L2.28106 27.1221L4.23525 29.935H2.98401Z" fill="#233589"/>
<path d="M8.74114 27.457V27.6814C8.74114 28.0413 8.68842 28.3643 8.58298 28.6505C8.47754 28.9366 8.32874 29.1805 8.13661 29.3821C7.94447 29.5816 7.71484 29.7344 7.44772 29.8407C7.18294 29.9469 6.88888 30 6.56552 30C6.24451 30 5.95044 29.9469 5.68332 29.8407C5.41855 29.7344 5.18892 29.5816 4.99444 29.3821C4.79995 29.1805 4.64882 28.9366 4.54103 28.6505C4.43559 28.3643 4.38287 28.0413 4.38287 27.6814V27.457C4.38287 27.095 4.43559 26.7719 4.54103 26.4879C4.64648 26.2018 4.79527 25.9579 4.98741 25.7562C5.18189 25.5546 5.41152 25.4007 5.67629 25.2945C5.94341 25.1882 6.23748 25.1351 6.55849 25.1351C6.88185 25.1351 7.17591 25.1882 7.44069 25.2945C7.70781 25.4007 7.93744 25.5546 8.12958 25.7562C8.32406 25.9579 8.47402 26.2018 8.57946 26.4879C8.68725 26.7719 8.74114 27.095 8.74114 27.457ZM7.67618 27.6814V27.4505C7.67618 27.199 7.65157 26.9779 7.60237 26.7871C7.55316 26.5963 7.48052 26.4359 7.38445 26.3058C7.28838 26.1757 7.17123 26.0782 7.03298 26.0131C6.89473 25.9459 6.73657 25.9123 6.55849 25.9123C6.38041 25.9123 6.22225 25.9459 6.084 26.0131C5.9481 26.0782 5.83211 26.1757 5.73604 26.3058C5.64232 26.4359 5.57085 26.5963 5.52165 26.7871C5.47244 26.9779 5.44784 27.199 5.44784 27.4505V27.6814C5.44784 27.9307 5.47244 28.1518 5.52165 28.3448C5.57085 28.5356 5.64349 28.6971 5.73956 28.8293C5.83563 28.9594 5.95279 29.058 6.09103 29.1252C6.22928 29.1924 6.38744 29.226 6.56552 29.226C6.7436 29.226 6.90176 29.1924 7.04001 29.1252C7.17826 29.058 7.29424 28.9594 7.38797 28.8293C7.48169 28.6971 7.55316 28.5356 7.60237 28.3448C7.65157 28.1518 7.67618 27.9307 7.67618 27.6814Z" fill="#233589"/>
<path d="M9.98184 25.2002H10.8746L12.1891 28.6765L13.5036 25.2002H14.3963L12.5476 29.935H11.8306L9.98184 25.2002ZM9.50032 25.2002H10.3895L10.5512 28.5887V29.935H9.50032V25.2002ZM13.9886 25.2002H14.8814V29.935H13.827V28.5887L13.9886 25.2002Z" fill="#233589"/>
<path d="M19.9742 25.2002V29.935H18.9198V25.9644H16.8637V29.935H15.8093V25.2002H19.9742Z" fill="#233589"/>
<path d="M25.0987 27.457V27.6814C25.0987 28.0413 25.046 28.3643 24.9405 28.6505C24.8351 28.9366 24.6863 29.1805 24.4942 29.3821C24.302 29.5816 24.0724 29.7344 23.8053 29.8407C23.5405 29.9469 23.2464 30 22.9231 30C22.6021 30 22.308 29.9469 22.0409 29.8407C21.7761 29.7344 21.5465 29.5816 21.352 29.3821C21.1575 29.1805 21.0064 28.9366 20.8986 28.6505C20.7932 28.3643 20.7404 28.0413 20.7404 27.6814V27.457C20.7404 27.095 20.7932 26.7719 20.8986 26.4879C21.004 26.2018 21.1528 25.9579 21.345 25.7562C21.5395 25.5546 21.7691 25.4007 22.0339 25.2945C22.301 25.1882 22.595 25.1351 22.9161 25.1351C23.2394 25.1351 23.5335 25.1882 23.7983 25.2945C24.0654 25.4007 24.295 25.5546 24.4871 25.7562C24.6816 25.9579 24.8316 26.2018 24.937 26.4879C25.0448 26.7719 25.0987 27.095 25.0987 27.457ZM24.0337 27.6814V27.4505C24.0337 27.199 24.0091 26.9779 23.9599 26.7871C23.9107 26.5963 23.8381 26.4359 23.742 26.3058C23.646 26.1757 23.5288 26.0782 23.3905 26.0131C23.2523 25.9459 23.0941 25.9123 22.9161 25.9123C22.738 25.9123 22.5798 25.9459 22.4416 26.0131C22.3057 26.0782 22.1897 26.1757 22.0936 26.3058C21.9999 26.4359 21.9284 26.5963 21.8792 26.7871C21.83 26.9779 21.8054 27.199 21.8054 27.4505V27.6814C21.8054 27.9307 21.83 28.1518 21.8792 28.3448C21.9284 28.5356 22.0011 28.6971 22.0971 28.8293C22.1932 28.9594 22.3104 29.058 22.4486 29.1252C22.5868 29.1924 22.745 29.226 22.9231 29.226C23.1012 29.226 23.2593 29.1924 23.3976 29.1252C23.5358 29.058 23.6518 28.9594 23.7455 28.8293C23.8393 28.6971 23.9107 28.5356 23.9599 28.3448C24.0091 28.1518 24.0337 27.9307 24.0337 27.6814Z" fill="#233589"/>
<path d="M27.7699 27.6651H26.9756V27.1481H27.6082C27.7933 27.1481 27.9433 27.1221 28.0581 27.07C28.1729 27.0158 28.2573 26.9399 28.3112 26.8424C28.3651 26.7448 28.392 26.6299 28.392 26.4977C28.392 26.3893 28.3615 26.2896 28.3006 26.1985C28.242 26.1075 28.1507 26.0348 28.0265 25.9806C27.9023 25.9243 27.7441 25.8961 27.552 25.8961C27.4067 25.8961 27.2743 25.9199 27.1548 25.9676C27.0353 26.0153 26.9404 26.0825 26.8701 26.1692C26.7998 26.2538 26.7647 26.3568 26.7647 26.4782H25.7138C25.7138 26.2701 25.7618 26.0836 25.8579 25.9188C25.9563 25.7519 26.0899 25.611 26.2586 25.4961C26.4296 25.379 26.6264 25.2901 26.849 25.2294C27.0716 25.1687 27.306 25.1384 27.552 25.1384C27.8402 25.1384 28.1003 25.1677 28.3323 25.2262C28.5642 25.2826 28.7634 25.3671 28.9298 25.4798C29.0961 25.5926 29.2238 25.7324 29.3129 25.8993C29.4019 26.0663 29.4464 26.2603 29.4464 26.4814C29.4464 26.644 29.4066 26.7969 29.3269 26.9399C29.2473 27.083 29.1336 27.2088 28.986 27.3172C28.8384 27.4256 28.6615 27.5112 28.4553 27.5741C28.2491 27.6348 28.0206 27.6651 27.7699 27.6651ZM26.9756 27.3822H27.7699C28.0487 27.3822 28.2959 27.4093 28.5115 27.4635C28.7294 27.5177 28.9134 27.5968 29.0633 27.7009C29.2156 27.805 29.3304 27.9339 29.4078 28.0879C29.4874 28.2396 29.5273 28.4141 29.5273 28.6114C29.5273 28.8326 29.4781 29.0288 29.3797 29.2C29.2836 29.3713 29.1465 29.5165 28.9684 29.6358C28.7927 29.755 28.5841 29.845 28.3428 29.9057C28.1038 29.9664 27.8402 29.9967 27.552 29.9967C27.3224 29.9967 27.0939 29.9707 26.8666 29.9187C26.6393 29.8645 26.4331 29.7821 26.248 29.6716C26.0629 29.561 25.9153 29.419 25.8052 29.2456C25.695 29.0721 25.64 28.864 25.64 28.6212H26.6979C26.6979 28.7361 26.7342 28.8412 26.8069 28.9366C26.8795 29.0298 26.9803 29.1046 27.1091 29.161C27.238 29.2152 27.3856 29.2423 27.552 29.2423C27.7465 29.2423 27.9117 29.2141 28.0476 29.1578C28.1858 29.1014 28.2901 29.0244 28.3604 28.9269C28.433 28.8271 28.4693 28.7177 28.4693 28.5984C28.4693 28.4705 28.4506 28.3621 28.4131 28.2732C28.3756 28.1843 28.3205 28.1117 28.2479 28.0554C28.1753 27.9968 28.0851 27.9545 27.9773 27.9285C27.8718 27.9025 27.7488 27.8895 27.6082 27.8895H26.9756V27.3822Z" fill="#233589"/>
<path d="M31.3233 28.4001L33.3794 25.2002H34.4338V29.935H33.3794V26.7351L31.3233 29.935H30.2689V25.2002H31.3233V28.4001Z" fill="#233589"/>
<path d="M37.5303 25.2002V29.935H36.4794V25.2002H37.5303ZM39.1049 25.2002V25.9644H34.9294V25.2002H39.1049Z" fill="#233589"/>
<path d="M40.4019 26.9269H41.5969C41.9975 26.9269 42.3432 26.9887 42.6337 27.1123C42.9266 27.2359 43.1504 27.4093 43.305 27.6326C43.462 27.8559 43.5405 28.1161 43.5405 28.4131C43.5405 28.6385 43.496 28.8445 43.4069 29.0309C43.3179 29.2152 43.189 29.3756 43.0203 29.5122C42.8516 29.6466 42.6478 29.7507 42.4088 29.8244C42.1698 29.8981 41.8991 29.935 41.5969 29.935H39.713V25.2002H40.7709V29.174H41.5969C41.796 29.174 41.9612 29.1393 42.0924 29.0699C42.226 29.0006 42.3256 28.9084 42.3912 28.7935C42.4568 28.6765 42.4896 28.5475 42.4896 28.4066C42.4896 28.2721 42.4568 28.1507 42.3912 28.0423C42.3256 27.9318 42.226 27.8451 42.0924 27.7822C41.9612 27.7193 41.796 27.6879 41.5969 27.6879H40.4019V26.9269ZM45.0448 25.2002V29.935H43.9939V25.2002H45.0448Z" fill="#233589"/>
<path d="M51.1675 27.1286V27.8895H48.4963V27.1286H51.1675ZM48.8091 25.2002V29.935H47.7547V25.2002H48.8091ZM51.9196 25.2002V29.935H50.8687V25.2002H51.9196Z" fill="#233589"/>
<path d="M57.0406 27.457V27.6814C57.0406 28.0413 56.9879 28.3643 56.8824 28.6505C56.777 28.9366 56.6282 29.1805 56.4361 29.3821C56.2439 29.5816 56.0143 29.7344 55.7472 29.8407C55.4824 29.9469 55.1883 30 54.865 30C54.544 30 54.2499 29.9469 53.9828 29.8407C53.718 29.7344 53.4884 29.5816 53.2939 29.3821C53.0994 29.1805 52.9483 28.9366 52.8405 28.6505C52.7351 28.3643 52.6823 28.0413 52.6823 27.6814V27.457C52.6823 27.095 52.7351 26.7719 52.8405 26.4879C52.9459 26.2018 53.0947 25.9579 53.2869 25.7562C53.4813 25.5546 53.711 25.4007 53.9757 25.2945C54.2429 25.1882 54.5369 25.1351 54.8579 25.1351C55.1813 25.1351 55.4754 25.1882 55.7401 25.2945C56.0073 25.4007 56.2369 25.5546 56.429 25.7562C56.6235 25.9579 56.7735 26.2018 56.8789 26.4879C56.9867 26.7719 57.0406 27.095 57.0406 27.457ZM55.9756 27.6814V27.4505C55.9756 27.199 55.951 26.9779 55.9018 26.7871C55.8526 26.5963 55.78 26.4359 55.6839 26.3058C55.5878 26.1757 55.4707 26.0782 55.3324 26.0131C55.1942 25.9459 55.036 25.9123 54.8579 25.9123C54.6799 25.9123 54.5217 25.9459 54.3835 26.0131C54.2476 26.0782 54.1316 26.1757 54.0355 26.3058C53.9418 26.4359 53.8703 26.5963 53.8211 26.7871C53.7719 26.9779 53.7473 27.199 53.7473 27.4505V27.6814C53.7473 27.9307 53.7719 28.1518 53.8211 28.3448C53.8703 28.5356 53.9429 28.6971 54.039 28.8293C54.1351 28.9594 54.2522 29.058 54.3905 29.1252C54.5287 29.1924 54.6869 29.226 54.865 29.226C55.0431 29.226 55.2012 29.1924 55.3395 29.1252C55.4777 29.058 55.5937 28.9594 55.6874 28.8293C55.7812 28.6971 55.8526 28.5356 55.9018 28.3448C55.951 28.1518 55.9756 27.9307 55.9756 27.6814Z" fill="#233589"/>
<path d="M59.8032 27.857H58.4887L58.4816 27.1871H59.5853C59.7797 27.1871 59.9391 27.1643 60.0633 27.1188C60.1875 27.0711 60.28 27.0028 60.3409 26.9139C60.4042 26.8229 60.4358 26.7123 60.4358 26.5822C60.4358 26.4348 60.4054 26.3156 60.3444 26.2245C60.2859 26.1335 60.1933 26.0673 60.0668 26.0262C59.9426 25.985 59.7821 25.9644 59.5853 25.9644H58.8542V29.935H57.7998V25.2002H59.5853C59.8828 25.2002 60.1488 25.2262 60.3831 25.2782C60.6198 25.3302 60.8201 25.4094 60.9841 25.5156C61.1481 25.6218 61.2735 25.7562 61.3602 25.9188C61.4469 26.0793 61.4902 26.2701 61.4902 26.4912C61.4902 26.6863 61.4422 26.8662 61.3461 27.031C61.2524 27.1958 61.1036 27.3302 60.8998 27.4342C60.6983 27.5383 60.4347 27.5957 60.109 27.6066L59.8032 27.857ZM59.7575 29.935H58.2005L58.6117 29.174H59.7575C59.9426 29.174 60.0937 29.1469 60.2109 29.0927C60.328 29.0363 60.4147 28.9605 60.471 28.8651C60.5272 28.7697 60.5553 28.6602 60.5553 28.5366C60.5553 28.3979 60.5296 28.2776 60.478 28.1757C60.4288 28.0738 60.3491 27.9957 60.239 27.9415C60.1289 27.8852 59.9836 27.857 59.8032 27.857H58.7874L58.7944 27.1871H60.0597L60.3023 27.4505C60.6139 27.4462 60.8646 27.4971 61.0544 27.6033C61.2466 27.7074 61.386 27.8429 61.4727 28.0098C61.5617 28.1768 61.6062 28.3556 61.6062 28.5464C61.6062 28.8499 61.5348 29.1057 61.3918 29.3138C61.2489 29.5198 61.0392 29.6748 60.7627 29.7789C60.4885 29.8829 60.1535 29.935 59.7575 29.935Z" fill="#233589"/>
<path d="M66.6007 27.457V27.6814C66.6007 28.0413 66.548 28.3643 66.4425 28.6505C66.3371 28.9366 66.1883 29.1805 65.9961 29.3821C65.804 29.5816 65.5744 29.7344 65.3073 29.8407C65.0425 29.9469 64.7484 30 64.425 30C64.104 30 63.81 29.9469 63.5429 29.8407C63.2781 29.7344 63.0484 29.5816 62.854 29.3821C62.6595 29.1805 62.5083 28.9366 62.4006 28.6505C62.2951 28.3643 62.2424 28.0413 62.2424 27.6814V27.457C62.2424 27.095 62.2951 26.7719 62.4006 26.4879C62.506 26.2018 62.6548 25.9579 62.8469 25.7562C63.0414 25.5546 63.271 25.4007 63.5358 25.2945C63.8029 25.1882 64.097 25.1351 64.418 25.1351C64.7414 25.1351 65.0354 25.1882 65.3002 25.2945C65.5673 25.4007 65.797 25.5546 65.9891 25.7562C66.1836 25.9579 66.3335 26.2018 66.439 26.4879C66.5468 26.7719 66.6007 27.095 66.6007 27.457ZM65.5357 27.6814V27.4505C65.5357 27.199 65.5111 26.9779 65.4619 26.7871C65.4127 26.5963 65.34 26.4359 65.244 26.3058C65.1479 26.1757 65.0308 26.0782 64.8925 26.0131C64.7543 25.9459 64.5961 25.9123 64.418 25.9123C64.2399 25.9123 64.0818 25.9459 63.9435 26.0131C63.8076 26.0782 63.6916 26.1757 63.5956 26.3058C63.5018 26.4359 63.4304 26.5963 63.3812 26.7871C63.332 26.9779 63.3074 27.199 63.3074 27.4505V27.6814C63.3074 27.9307 63.332 28.1518 63.3812 28.3448C63.4304 28.5356 63.503 28.6971 63.5991 28.8293C63.6952 28.9594 63.8123 29.058 63.9506 29.1252C64.0888 29.1924 64.247 29.226 64.425 29.226C64.6031 29.226 64.7613 29.1924 64.8995 29.1252C65.0378 29.058 65.1538 28.9594 65.2475 28.8293C65.3412 28.6971 65.4127 28.5356 65.4619 28.3448C65.5111 28.1518 65.5357 27.9307 65.5357 27.6814Z" fill="#233589"/>
<path d="M70.7199 25.2002V25.9644H68.4143V29.935H67.3634V25.2002H70.7199Z" fill="#233589"/>
<path d="M75.3383 27.457V27.6814C75.3383 28.0413 75.2856 28.3643 75.1801 28.6505C75.0747 28.9366 74.9259 29.1805 74.7338 29.3821C74.5416 29.5816 74.312 29.7344 74.0449 29.8407C73.7801 29.9469 73.486 30 73.1627 30C72.8417 30 72.5476 29.9469 72.2805 29.8407C72.0157 29.7344 71.7861 29.5816 71.5916 29.3821C71.3971 29.1805 71.246 28.9366 71.1382 28.6505C71.0327 28.3643 70.98 28.0413 70.98 27.6814V27.457C70.98 27.095 71.0327 26.7719 71.1382 26.4879C71.2436 26.2018 71.3924 25.9579 71.5846 25.7562C71.779 25.5546 72.0087 25.4007 72.2734 25.2945C72.5406 25.1882 72.8346 25.1351 73.1556 25.1351C73.479 25.1351 73.7731 25.1882 74.0378 25.2945C74.305 25.4007 74.5346 25.5546 74.7267 25.7562C74.9212 25.9579 75.0712 26.2018 75.1766 26.4879C75.2844 26.7719 75.3383 27.095 75.3383 27.457ZM74.2733 27.6814V27.4505C74.2733 27.199 74.2487 26.9779 74.1995 26.7871C74.1503 26.5963 74.0777 26.4359 73.9816 26.3058C73.8855 26.1757 73.7684 26.0782 73.6301 26.0131C73.4919 25.9459 73.3337 25.9123 73.1556 25.9123C72.9776 25.9123 72.8194 25.9459 72.6812 26.0131C72.5452 26.0782 72.4293 26.1757 72.3332 26.3058C72.2395 26.4359 72.168 26.5963 72.1188 26.7871C72.0696 26.9779 72.045 27.199 72.045 27.4505V27.6814C72.045 27.9307 72.0696 28.1518 72.1188 28.3448C72.168 28.5356 72.2406 28.6971 72.3367 28.8293C72.4328 28.9594 72.5499 29.058 72.6882 29.1252C72.8264 29.1924 72.9846 29.226 73.1627 29.226C73.3408 29.226 73.4989 29.1924 73.6372 29.1252C73.7754 29.058 73.8914 28.9594 73.9851 28.8293C74.0788 28.6971 74.1503 28.5356 74.1995 28.3448C74.2487 28.1518 74.2733 27.9307 74.2733 27.6814Z" fill="#233589"/>
<path d="M82.0585 25.2002V29.935H81.004V25.9644H78.9479V29.935H77.8935V25.2002H82.0585Z" fill="#233589"/>
<path d="M87.1829 27.457V27.6814C87.1829 28.0413 87.1302 28.3643 87.0248 28.6505C86.9193 28.9366 86.7705 29.1805 86.5784 29.3821C86.3863 29.5816 86.1566 29.7344 85.8895 29.8407C85.6247 29.9469 85.3307 30 85.0073 30C84.6863 30 84.3922 29.9469 84.1251 29.8407C83.8604 29.7344 83.6307 29.5816 83.4362 29.3821C83.2418 29.1805 83.0906 28.9366 82.9828 28.6505C82.8774 28.3643 82.8247 28.0413 82.8247 27.6814V27.457C82.8247 27.095 82.8774 26.7719 82.9828 26.4879C83.0883 26.2018 83.2371 25.9579 83.4292 25.7562C83.6237 25.5546 83.8533 25.4007 84.1181 25.2945C84.3852 25.1882 84.6793 25.1351 85.0003 25.1351C85.3236 25.1351 85.6177 25.1882 85.8825 25.2945C86.1496 25.4007 86.3792 25.5546 86.5714 25.7562C86.7659 25.9579 86.9158 26.2018 87.0213 26.4879C87.1291 26.7719 87.1829 27.095 87.1829 27.457ZM86.118 27.6814V27.4505C86.118 27.199 86.0934 26.9779 86.0442 26.7871C85.995 26.5963 85.9223 26.4359 85.8263 26.3058C85.7302 26.1757 85.613 26.0782 85.4748 26.0131C85.3365 25.9459 85.1784 25.9123 85.0003 25.9123C84.8222 25.9123 84.6641 25.9459 84.5258 26.0131C84.3899 26.0782 84.2739 26.1757 84.1778 26.3058C84.0841 26.4359 84.0127 26.5963 83.9634 26.7871C83.9142 26.9779 83.8896 27.199 83.8896 27.4505V27.6814C83.8896 27.9307 83.9142 28.1518 83.9634 28.3448C84.0127 28.5356 84.0853 28.6971 84.1814 28.8293C84.2774 28.9594 84.3946 29.058 84.5328 29.1252C84.6711 29.1924 84.8292 29.226 85.0073 29.226C85.1854 29.226 85.3436 29.1924 85.4818 29.1252C85.6201 29.058 85.736 28.9594 85.8298 28.8293C85.9235 28.6971 85.995 28.5356 86.0442 28.3448C86.0934 28.1518 86.118 27.9307 86.118 27.6814Z" fill="#233589"/>
<path d="M89.0001 25.2002V29.935H87.9456V25.2002H89.0001ZM92.0157 25.2002L90.0545 27.9806H88.7646L88.631 27.1123H89.4921L90.7363 25.2002H92.0157ZM90.9296 29.935L89.4956 27.818L90.2267 27.1221L92.1809 29.935H90.9296Z" fill="#233589"/>
<path d="M96.6868 27.457V27.6814C96.6868 28.0413 96.6341 28.3643 96.5286 28.6505C96.4232 28.9366 96.2744 29.1805 96.0822 29.3821C95.8901 29.5816 95.6605 29.7344 95.3934 29.8407C95.1286 29.9469 94.8345 30 94.5112 30C94.1901 30 93.8961 29.9469 93.629 29.8407C93.3642 29.7344 93.1346 29.5816 92.9401 29.3821C92.7456 29.1805 92.5945 28.9366 92.4867 28.6505C92.3812 28.3643 92.3285 28.0413 92.3285 27.6814V27.457C92.3285 27.095 92.3812 26.7719 92.4867 26.4879C92.5921 26.2018 92.7409 25.9579 92.933 25.7562C93.1275 25.5546 93.3572 25.4007 93.6219 25.2945C93.8891 25.1882 94.1831 25.1351 94.5041 25.1351C94.8275 25.1351 95.1216 25.1882 95.3863 25.2945C95.6535 25.4007 95.8831 25.5546 96.0752 25.7562C96.2697 25.9579 96.4197 26.2018 96.5251 26.4879C96.6329 26.7719 96.6868 27.095 96.6868 27.457ZM95.6218 27.6814V27.4505C95.6218 27.199 95.5972 26.9779 95.548 26.7871C95.4988 26.5963 95.4262 26.4359 95.3301 26.3058C95.234 26.1757 95.1169 26.0782 94.9786 26.0131C94.8404 25.9459 94.6822 25.9123 94.5041 25.9123C94.326 25.9123 94.1679 25.9459 94.0296 26.0131C93.8937 26.0782 93.7778 26.1757 93.6817 26.3058C93.588 26.4359 93.5165 26.5963 93.4673 26.7871C93.4181 26.9779 93.3935 27.199 93.3935 27.4505V27.6814C93.3935 27.9307 93.4181 28.1518 93.4673 28.3448C93.5165 28.5356 93.5891 28.6971 93.6852 28.8293C93.7813 28.9594 93.8984 29.058 94.0367 29.1252C94.1749 29.1924 94.3331 29.226 94.5112 29.226C94.6892 29.226 94.8474 29.1924 94.9856 29.1252C95.1239 29.058 95.2399 28.9594 95.3336 28.8293C95.4273 28.6971 95.4988 28.5356 95.548 28.3448C95.5972 28.1518 95.6218 27.9307 95.6218 27.6814Z" fill="#233589"/>
<path d="M100.746 25.2002V25.9644H98.2016V25.2002H100.746ZM101.498 25.2002V29.935H100.444V25.2002H101.498ZM98.0681 25.2002H99.119L98.9889 27.5773C98.9702 27.9329 98.9339 28.2418 98.88 28.5041C98.8284 28.7664 98.7581 28.9897 98.6691 29.174C98.58 29.3561 98.4699 29.5035 98.3387 29.6163C98.2098 29.7268 98.0575 29.8081 97.8818 29.8602C97.7061 29.91 97.5057 29.935 97.2808 29.935H97.0207V29.174L97.1542 29.1643C97.2691 29.1534 97.3698 29.1252 97.4565 29.0797C97.5432 29.0342 97.617 28.9659 97.6779 28.8748C97.7412 28.7838 97.7927 28.6678 97.8326 28.5269C97.8748 28.3838 97.9076 28.2093 97.931 28.0033C97.9568 27.7974 97.9743 27.5567 97.9837 27.2814L98.0681 25.2002Z" fill="#233589"/>
<path d="M105.85 29.174V29.935H103.126V29.174H105.85ZM103.47 25.2002V29.935H102.416V25.2002H103.47ZM105.495 27.1286V27.87H103.126V27.1286H105.495ZM105.846 25.2002V25.9644H103.126V25.2002H105.846Z" fill="#233589"/>
<path d="M109.878 27.1286V27.8895H107.206V27.1286H109.878ZM107.519 25.2002V29.935H106.465V25.2002H107.519ZM110.63 25.2002V29.935H109.579V25.2002H110.63Z" fill="#233589"/>
<path d="M112.563 28.4001L114.619 25.2002H115.673V29.935H114.619V26.7351L112.563 29.935H111.508V25.2002H112.563V28.4001Z" fill="#233589"/>
<path d="M119.308 28.2147H117.916L117.561 28.0781C117.16 27.961 116.853 27.7854 116.64 27.5513C116.429 27.3172 116.324 27.0191 116.324 26.657C116.324 26.3383 116.4 26.0717 116.552 25.8571C116.707 25.6403 116.925 25.4766 117.206 25.366C117.489 25.2555 117.826 25.2002 118.215 25.2002H120V29.935H118.942V25.9644H118.215C117.926 25.9644 117.714 26.0305 117.578 26.1627C117.442 26.295 117.374 26.4825 117.374 26.7253C117.374 26.9031 117.406 27.0494 117.469 27.1643C117.533 27.2771 117.625 27.3616 117.747 27.418C117.869 27.4722 118.022 27.4993 118.207 27.4993H119.304L119.308 28.2147ZM118.292 27.8212L117.157 29.935H116.014L117.153 27.8212H118.292Z" fill="#233589"/>
<defs>
<clipPath id="clip0_3005_57487">
<rect width="120" height="21.0811" fill="white" transform="translate(0 0.578003)"/>
</clipPath>
</defs>
</svg>
